<?xml version="1.0" standalone="no"?>
<!DOCTYPE svg PUBLIC "-//W3C//DTD SVG 20010904//EN"
 "http://www.w3.org/TR/2001/REC-SVG-20010904/DTD/svg10.dtd">
<svg version="1.0" xmlns="http://www.w3.org/2000/svg"
 width="512.000000pt" height="512.000000pt" viewBox="0 0 512.000000 512.000000"
 preserveAspectRatio="xMidYMid meet">
<metadata>
Created by potrace 1.14, written by Peter Selinger 2001-2017
</metadata>
<g transform="translate(0.000000,512.000000) scale(0.100000,-0.100000)"
fill="#000000" stroke="none">
<path d="M2379 5116 c-2 -2 -40 -6 -83 -10 -44 -4 -82 -8 -85 -10 -3 -2 -31
-7 -61 -11 -204 -25 -481 -112 -724 -229 -764 -366 -1312 -1144 -1411 -2005
-14 -118 -15 -509 -2 -566 3 -12 8 -48 12 -80 8 -67 7 -61 30 -170 85 -410
276 -804 541 -1115 449 -527 1034 -838 1714 -910 129 -13 497 -5 620 15 734
114 1346 504 1762 1120 186 276 329 622 383 930 4 22 9 49 11 60 19 105 29
245 29 420 0 217 -11 339 -44 500 -6 28 -13 61 -15 75 -33 164 -116 391 -218
594 l-59 120 32 80 c168 424 180 754 34 932 -116 141 -333 187 -625 131 -69
-13 -235 -62 -295 -87 -11 -4 -55 -22 -98 -39 l-77 -31 -88 41 c-244 114 -508
193 -752 225 -25 3 -56 8 -70 10 -28 6 -456 15 -461 10z m1787 -326 c145 -47
233 -141 267 -287 13 -58 23 -203 14 -203 -3 0 -38 33 -78 73 -142 142 -294
260 -479 375 -46 28 -82 52 -80 53 40 4 96 12 98 13 1 2 45 2 96 0 65 -1 116
-9 162 -24z"/>
</g>
</svg>
